# xmcd
#
# Track frame offsets:
#	150
#	14211
#	27787
#	46846
#	60808
#	78811
#	92493
#	104451
#	118369
#	134931
#	147742
#	161708
#	176619
#	189577
#	206232
#	219273
#	236317
#	250718
#	265302
#	280103
#
# Disc length: 3930 seconds
#
# Revision: 0
# Processed by: cddbd v1.5.2PL0 Copyright (c) Steve Scherf et al.
# Submitted via: EZCDAudioConverter 7.1.0.1
#
DISCID=240f5814
DTITLE=Nu Country Traxx Volume 231 US
DYEAR=2018
DGENRE=country
TTITLE0=Little Big Town - Summer Fever
TTITLE1=Kane Brown - Lose It
TTITLE2=Darius Rucker ft. Jason Aldean, Luke Bryan and Charles Kelley - Straig
TTITLE2=ht To Hell
TTITLE3=Brett Eldredge - Love Someone
TTITLE4=Dierks Bentley ft. Brothers Osborne - Burning Man
TTITLE5=Houston Bernard Band - We Made Out
TTITLE6=Carlton Anderson - Drop Everything
TTITLE7=Luke Combs - She Got The Best Of Me
TTITLE8=Michael Ray - One That Got Away
TTITLE9=Everette - Slow Roll
TTITLE10=Garth Brooks - All Day Long
TTITLE11=Lee Brice - Rumor
TTITLE12=Chance McKinney - Take It Back
TTITLE13=Shenandoah - That's Where I Grew Up
TTITLE14=Blackjack Billy - Straight Line Sober
TTITLE15=Richard Schroder - Wildest Dreams
TTITLE16=Bucky Covington - I Probably Won't
TTITLE17=Blair Mathews - Summer Heartbeat
TTITLE18=Sylvia - Nobody
TTITLE19=John Berry - Beautifully Broken
EXTD=
EXTT0=
EXTT1=
EXTT2=
EXTT3=
EXTT4=
EXTT5=
EXTT6=
EXTT7=
EXTT8=
EXTT9=
EXTT10=
EXTT11=
EXTT12=
EXTT13=
EXTT14=
EXTT15=
EXTT16=
EXTT17=
EXTT18=
EXTT19=
PLAYORDER=
